<svg width="1958" height="944" xmlns="http://www.w3.org/2000/svg" xmlns:xlink="http://www.w3.org/1999/xlink" xml:space="preserve" overflow="hidden"><g transform="translate(-1383 -1126)"><path d="M1559.78 1126.64 1559.78 2056.77" stroke="#000000" stroke-width="2.29167" stroke-linejoin="round" stroke-miterlimit="10" fill="none" fill-rule="evenodd"/><path d="M1669.53 1126.64 1669.53 2056.77" stroke="#000000" stroke-width="2.29167" stroke-linejoin="round" stroke-miterlimit="10" fill="none" fill-rule="evenodd"/><path d="M1779.29 1126.64 1779.29 2056.77" stroke="#000000" stroke-width="2.29167" stroke-linejoin="round" stroke-miterlimit="10" fill="none" fill-rule="evenodd"/><path d="M1889.04 1126.64 1889.04 2056.77" stroke="#000000" stroke-width="2.29167" stroke-linejoin="round" stroke-miterlimit="10" fill="none" fill-rule="evenodd"/><path d="M1998.8 1126.64 1998.8 1221.72" stroke="#000000" stroke-width="2.29167" stroke-linejoin="round" stroke-miterlimit="10" fill="none" fill-rule="evenodd"/><path d="M2108.55 1126.64 2108.55 1221.72" stroke="#000000" stroke-width="2.29167" stroke-linejoin="round" stroke-miterlimit="10" fill="none" fill-rule="evenodd"/><path d="M2218.31 1126.64 2218.31 1221.72" stroke="#000000" stroke-width="2.29167" stroke-linejoin="round" stroke-miterlimit="10" fill="none" fill-rule="evenodd"/><path d="M2328.06 1126.64 2328.06 1221.72" stroke="#000000" stroke-width="2.29167" stroke-linejoin="round" stroke-miterlimit="10" fill="none" fill-rule="evenodd"/><path d="M2437.82 1126.64 2437.82 2056.77" stroke="#000000" stroke-width="2.29167" stroke-linejoin="round" stroke-miterlimit="10" fill="none" fill-rule="evenodd"/><path d="M2547.57 1126.64 2547.57 1221.72" stroke="#000000" stroke-width="2.29167" stroke-linejoin="round" stroke-miterlimit="10" fill="none" fill-rule="evenodd"/><path d="M2547.57 1312.21 2547.57 1407.28" stroke="#000000" stroke-width="2.29167" stroke-linejoin="round" stroke-miterlimit="10" fill="none" fill-rule="evenodd"/><path d="M2547.57 1590.56 2547.57 1778.42" stroke="#000000" stroke-width="2.29167" stroke-linejoin="round" stroke-miterlimit="10" fill="none" fill-rule="evenodd"/><path d="M2547.57 1868.91 2547.57 1963.99" stroke="#000000" stroke-width="2.29167" stroke-linejoin="round" stroke-miterlimit="10" fill="none" fill-rule="evenodd"/><path d="M2657.33 1126.64 2657.33 1221.72" stroke="#000000" stroke-width="2.29167" stroke-linejoin="round" stroke-miterlimit="10" fill="none" fill-rule="evenodd"/><path d="M2657.33 1590.56 2657.33 1778.42" stroke="#000000" stroke-width="2.29167" stroke-linejoin="round" stroke-miterlimit="10" fill="none" fill-rule="evenodd"/><path d="M2657.33 1868.91 2657.33 1963.99" stroke="#000000" stroke-width="2.29167" stroke-linejoin="round" stroke-miterlimit="10" fill="none" fill-rule="evenodd"/><path d="M2789.03 1126.64 2789.03 2056.77" stroke="#000000" stroke-width="2.29167" stroke-linejoin="round" stroke-miterlimit="10" fill="none" fill-rule="evenodd"/><path d="M2898.79 1126.64 2898.79 1221.72" stroke="#000000" stroke-width="2.29167" stroke-linejoin="round" stroke-miterlimit="10" fill="none" fill-rule="evenodd"/><path d="M2898.79 1590.56 2898.79 1778.42" stroke="#000000" stroke-width="2.29167" stroke-linejoin="round" stroke-miterlimit="10" fill="none" fill-rule="evenodd"/><path d="M3008.55 1126.64 3008.55 1221.72" stroke="#000000" stroke-width="2.29167" stroke-linejoin="round" stroke-miterlimit="10" fill="none" fill-rule="evenodd"/><path d="M3008.55 1590.56 3008.55 1871.2" stroke="#000000" stroke-width="2.29167" stroke-linejoin="round" stroke-miterlimit="10" fill="none" fill-rule="evenodd"/><path d="M3118.3 1126.64 3118.3 1221.72" stroke="#000000" stroke-width="2.29167" stroke-linejoin="round" stroke-miterlimit="10" fill="none" fill-rule="evenodd"/><path d="M3118.3 1590.56 3118.3 1778.42" stroke="#000000" stroke-width="2.29167" stroke-linejoin="round" stroke-miterlimit="10" fill="none" fill-rule="evenodd"/><path d="M3228.06 1126.64 3228.06 1221.72" stroke="#000000" stroke-width="2.29167" stroke-linejoin="round" stroke-miterlimit="10" fill="none" fill-rule="evenodd"/><path d="M3228.06 1590.56 3228.06 1778.42" stroke="#000000" stroke-width="2.29167" stroke-linejoin="round" stroke-miterlimit="10" fill="none" fill-rule="evenodd"/><path d="M1383.02 1220.57 3338.96 1220.57" stroke="#000000" stroke-width="2.29167" stroke-linejoin="round" stroke-miterlimit="10" fill="none" fill-rule="evenodd"/><path d="M1383.02 1313.35 3338.96 1313.35" stroke="#000000" stroke-width="2.29167" stroke-linejoin="round" stroke-miterlimit="10" fill="none" fill-rule="evenodd"/><path d="M1383.02 1406.14 3338.96 1406.14" stroke="#000000" stroke-width="2.29167" stroke-linejoin="round" stroke-miterlimit="10" fill="none" fill-rule="evenodd"/><path d="M1383.02 1498.92 3338.96 1498.92" stroke="#000000" stroke-width="2.29167" stroke-linejoin="round" stroke-miterlimit="10" fill="none" fill-rule="evenodd"/><path d="M1383.02 1591.71 3338.96 1591.71" stroke="#000000" stroke-width="2.29167" stroke-linejoin="round" stroke-miterlimit="10" fill="none" fill-rule="evenodd"/><path d="M1383.02 1684.49 3338.96 1684.49" stroke="#000000" stroke-width="2.29167" stroke-linejoin="round" stroke-miterlimit="10" fill="none" fill-rule="evenodd"/><path d="M1383.02 1777.27 3338.96 1777.27" stroke="#000000" stroke-width="2.29167" stroke-linejoin="round" stroke-miterlimit="10" fill="none" fill-rule="evenodd"/><path d="M1383.02 1870.06 3338.96 1870.06" stroke="#000000" stroke-width="2.29167" stroke-linejoin="round" stroke-miterlimit="10" fill="none" fill-rule="evenodd"/><path d="M1383.02 1962.84 3338.96 1962.84" stroke="#000000" stroke-width="2.29167" stroke-linejoin="round" stroke-miterlimit="10" fill="none" fill-rule="evenodd"/><path d="M1384.17 1126.64 1384.17 2056.77" stroke="#000000" stroke-width="2.29167" stroke-linejoin="round" stroke-miterlimit="10" fill="none" fill-rule="evenodd"/><path d="M3337.81 1126.64 3337.81 2056.77" stroke="#000000" stroke-width="2.29167" stroke-linejoin="round" stroke-miterlimit="10" fill="none" fill-rule="evenodd"/><path d="M1383.02 1127.79 3338.96 1127.79" stroke="#000000" stroke-width="2.29167" stroke-linejoin="round" stroke-miterlimit="10" fill="none" fill-rule="evenodd"/><path d="M1383.02 2055.63 3338.96 2055.63" stroke="#000000" stroke-width="2.29167" stroke-linejoin="round" stroke-miterlimit="10" fill="none" fill-rule="evenodd"/><text font-family="DengXian,DengXian_MSFontService,sans-serif" font-weight="400" font-size="50" transform="matrix(1 0 0 1 3269.76 1190)">0</text><text font-family="DengXian,DengXian_MSFontService,sans-serif" font-weight="400" font-size="50" transform="matrix(1 0 0 1 3160 1190)">1</text><text font-family="DengXian,DengXian_MSFontService,sans-serif" font-weight="400" font-size="50" transform="matrix(1 0 0 1 3050.25 1190)">2</text><text font-family="DengXian,DengXian_MSFontService,sans-serif" font-weight="400" font-size="50" transform="matrix(1 0 0 1 2940.49 1190)">3</text><text font-family="DengXian,DengXian_MSFontService,sans-serif" font-weight="400" font-size="50" transform="matrix(1 0 0 1 2830.74 1190)">4</text><text font-family="DengXian,DengXian_MSFontService,sans-serif" font-weight="400" font-size="50" transform="matrix(1 0 0 1 2710 1190)">5</text><text font-family="DengXian,DengXian_MSFontService,sans-serif" font-weight="400" font-size="50" transform="matrix(1 0 0 1 2589.27 1190)">6</text><text font-family="DengXian,DengXian_MSFontService,sans-serif" font-weight="400" font-size="50" transform="matrix(1 0 0 1 2479.52 1190)">7</text><text font-family="DengXian,DengXian_MSFontService,sans-serif" font-weight="400" font-size="50" transform="matrix(1 0 0 1 2369.76 1190)">8</text><text font-family="DengXian,DengXian_MSFontService,sans-serif" font-weight="400" font-size="50" transform="matrix(1 0 0 1 2260.01 1190)">9</text><g><text font-family="DengXian,DengXian_MSFontService,sans-serif" font-weight="400" font-size="50" transform="matrix(1 0 0 1 2137.07 1190)">10</text></g><g><text font-family="DengXian,DengXian_MSFontService,sans-serif" font-weight="400" font-size="50" transform="matrix(1 0 0 1 2027.32 1190)">11</text></g><g><text font-family="DengXian,DengXian_MSFontService,sans-serif" font-weight="400" font-size="50" transform="matrix(1 0 0 1 1917.56 1190)">12</text></g><g><text font-family="DengXian,DengXian_MSFontService,sans-serif" font-weight="400" font-size="50" transform="matrix(1 0 0 1 1807.81 1190)">13</text></g><g><text font-family="DengXian,DengXian_MSFontService,sans-serif" font-weight="400" font-size="50" transform="matrix(1 0 0 1 1698.05 1190)">14</text></g><g><text font-family="DengXian,DengXian_MSFontService,sans-serif" font-weight="400" font-size="50" transform="matrix(1 0 0 1 1588.3 1190)">15</text></g><g><text font-family="DengXian,DengXian_MSFontService,sans-serif" font-weight="400" font-size="50" transform="matrix(1 0 0 1 1386.92 1190)">Bit</text></g><text font-family="DengXian,DengXian_MSFontService,sans-serif" font-weight="400" font-size="50" transform="matrix(1 0 0 1 1442.49 1190)">：</text><text font-family="DengXian,DengXian_MSFontService,sans-serif" font-weight="400" font-size="50" transform="matrix(1 0 0 1 2976.05 1283)">Address</text><text font-family="DengXian,DengXian_MSFontService,sans-serif" font-weight="400" font-size="50" transform="matrix(1 0 0 1 2507.44 1283)">Condition</text><text font-family="DengXian,DengXian_MSFontService,sans-serif" font-weight="400" font-size="50" transform="matrix(1 0 0 1 2006.16 1283)">Delay/side</text><text font-family="DengXian,DengXian_MSFontService,sans-serif" font-weight="400" font-size="50" transform="matrix(1 0 0 1 2233.04 1283)">-</text><text font-family="DengXian,DengXian_MSFontService,sans-serif" font-weight="400" font-size="50" transform="matrix(1 0 0 1 2258.25 1283)">set</text><text font-family="DengXian,DengXian_MSFontService,sans-serif" font-weight="400" font-size="50" transform="matrix(1 0 0 1 1820.99 1283)">0</text><text font-family="DengXian,DengXian_MSFontService,sans-serif" font-weight="400" font-size="50" transform="matrix(1 0 0 1 1711.23 1283)">0</text><text font-family="DengXian,DengXian_MSFontService,sans-serif" font-weight="400" font-size="50" transform="matrix(1 0 0 1 1601.48 1283)">0</text><g><text font-family="DengXian,DengXian_MSFontService,sans-serif" font-weight="400" font-size="50" transform="matrix(1 0 0 1 1386.92 1283)">JMP</text></g><text font-family="DengXian,DengXian_MSFontService,sans-serif" font-weight="400" font-size="50" transform="matrix(1 0 0 1 3004.7 1376)">Index</text><text font-family="DengXian,DengXian_MSFontService,sans-serif" font-weight="400" font-size="50" transform="matrix(1 0 0 1 2594.4 1376)">Source</text><g><text font-family="DengXian,DengXian_MSFontService,sans-serif" font-weight="400" font-size="50" transform="matrix(1 0 0 1 2458.61 1376)">Pol</text></g><text font-family="DengXian,DengXian_MSFontService,sans-serif" font-weight="400" font-size="50" transform="matrix(1 0 0 1 2006.16 1376)">Delay/side</text><text font-family="DengXian,DengXian_MSFontService,sans-serif" font-weight="400" font-size="50" transform="matrix(1 0 0 1 2233.04 1376)">-</text><text font-family="DengXian,DengXian_MSFontService,sans-serif" font-weight="400" font-size="50" transform="matrix(1 0 0 1 2258.25 1376)">set</text><text font-family="DengXian,DengXian_MSFontService,sans-serif" font-weight="400" font-size="50" transform="matrix(1 0 0 1 1820.99 1376)">1</text><text font-family="DengXian,DengXian_MSFontService,sans-serif" font-weight="400" font-size="50" transform="matrix(1 0 0 1 1711.23 1376)">0</text><text font-family="DengXian,DengXian_MSFontService,sans-serif" font-weight="400" font-size="50" transform="matrix(1 0 0 1 1601.48 1376)">0</text><g><text font-family="DengXian,DengXian_MSFontService,sans-serif" font-weight="400" font-size="50" transform="matrix(1 0 0 1 1386.92 1376)">WAIT</text></g><text font-family="DengXian,DengXian_MSFontService,sans-serif" font-weight="400" font-size="50" transform="matrix(1 0 0 1 2967.46 1469)">Bit count</text><text font-family="DengXian,DengXian_MSFontService,sans-serif" font-weight="400" font-size="50" transform="matrix(1 0 0 1 2539.52 1469)">Source</text><text font-family="DengXian,DengXian_MSFontService,sans-serif" font-weight="400" font-size="50" transform="matrix(1 0 0 1 2006.16 1469)">Delay/side</text><text font-family="DengXian,DengXian_MSFontService,sans-serif" font-weight="400" font-size="50" transform="matrix(1 0 0 1 2233.04 1469)">-</text><text font-family="DengXian,DengXian_MSFontService,sans-serif" font-weight="400" font-size="50" transform="matrix(1 0 0 1 2258.25 1469)">set</text><text font-family="DengXian,DengXian_MSFontService,sans-serif" font-weight="400" font-size="50" transform="matrix(1 0 0 1 1820.99 1469)">0</text><text font-family="DengXian,DengXian_MSFontService,sans-serif" font-weight="400" font-size="50" transform="matrix(1 0 0 1 1711.23 1469)">1</text><text font-family="DengXian,DengXian_MSFontService,sans-serif" font-weight="400" font-size="50" transform="matrix(1 0 0 1 1601.48 1469)">0</text><g><text font-family="DengXian,DengXian_MSFontService,sans-serif" font-weight="400" font-size="50" transform="matrix(1 0 0 1 1386.92 1469)">IN</text></g><text font-family="DengXian,DengXian_MSFontService,sans-serif" font-weight="400" font-size="50" transform="matrix(1 0 0 1 2967.46 1561)">Bit count</text><text font-family="DengXian,DengXian_MSFontService,sans-serif" font-weight="400" font-size="50" transform="matrix(1 0 0 1 2490.82 1561)">Destination</text><text font-family="DengXian,DengXian_MSFontService,sans-serif" font-weight="400" font-size="50" transform="matrix(1 0 0 1 2006.16 1561)">Delay/side</text><text font-family="DengXian,DengXian_MSFontService,sans-serif" font-weight="400" font-size="50" transform="matrix(1 0 0 1 2233.04 1561)">-</text><text font-family="DengXian,DengXian_MSFontService,sans-serif" font-weight="400" font-size="50" transform="matrix(1 0 0 1 2258.25 1561)">set</text><text font-family="DengXian,DengXian_MSFontService,sans-serif" font-weight="400" font-size="50" transform="matrix(1 0 0 1 1820.99 1561)">1</text><text font-family="DengXian,DengXian_MSFontService,sans-serif" font-weight="400" font-size="50" transform="matrix(1 0 0 1 1711.23 1561)">1</text><text font-family="DengXian,DengXian_MSFontService,sans-serif" font-weight="400" font-size="50" transform="matrix(1 0 0 1 1601.48 1561)">0</text><g><text font-family="DengXian,DengXian_MSFontService,sans-serif" font-weight="400" font-size="50" transform="matrix(1 0 0 1 1386.92 1561)">OUT</text></g><text font-family="DengXian,DengXian_MSFontService,sans-serif" font-weight="400" font-size="50" transform="matrix(1 0 0 1 3269.76 1654)">0</text><text font-family="DengXian,DengXian_MSFontService,sans-serif" font-weight="400" font-size="50" transform="matrix(1 0 0 1 3160 1654)">0</text><text font-family="DengXian,DengXian_MSFontService,sans-serif" font-weight="400" font-size="50" transform="matrix(1 0 0 1 3050.25 1654)">0</text><text font-family="DengXian,DengXian_MSFontService,sans-serif" font-weight="400" font-size="50" transform="matrix(1 0 0 1 2940.49 1654)">0</text><text font-family="DengXian,DengXian_MSFontService,sans-serif" font-weight="400" font-size="50" transform="matrix(1 0 0 1 2830.74 1654)">0</text><text font-family="DengXian,DengXian_MSFontService,sans-serif" font-weight="400" font-size="50" transform="matrix(1 0 0 1 2691.67 1654)">Blk</text><g><text font-family="DengXian,DengXian_MSFontService,sans-serif" font-weight="400" font-size="50" transform="matrix(1 0 0 1 2576.67 1654)">IfF</text></g><text font-family="DengXian,DengXian_MSFontService,sans-serif" font-weight="400" font-size="50" transform="matrix(1 0 0 1 2479.52 1654)">0</text><text font-family="DengXian,DengXian_MSFontService,sans-serif" font-weight="400" font-size="50" transform="matrix(1 0 0 1 2006.16 1654)">Delay/side</text><text font-family="DengXian,DengXian_MSFontService,sans-serif" font-weight="400" font-size="50" transform="matrix(1 0 0 1 2233.04 1654)">-</text><text font-family="DengXian,DengXian_MSFontService,sans-serif" font-weight="400" font-size="50" transform="matrix(1 0 0 1 2258.25 1654)">set</text><text font-family="DengXian,DengXian_MSFontService,sans-serif" font-weight="400" font-size="50" transform="matrix(1 0 0 1 1820.99 1654)">0</text><text font-family="DengXian,DengXian_MSFontService,sans-serif" font-weight="400" font-size="50" transform="matrix(1 0 0 1 1711.23 1654)">0</text><text font-family="DengXian,DengXian_MSFontService,sans-serif" font-weight="400" font-size="50" transform="matrix(1 0 0 1 1601.48 1654)">1</text><g><text font-family="DengXian,DengXian_MSFontService,sans-serif" font-weight="400" font-size="50" transform="matrix(1 0 0 1 1386.92 1654)">PUSH</text></g><text font-family="DengXian,DengXian_MSFontService,sans-serif" font-weight="400" font-size="50" transform="matrix(1 0 0 1 3269.76 1747)">0</text><text font-family="DengXian,DengXian_MSFontService,sans-serif" font-weight="400" font-size="50" transform="matrix(1 0 0 1 3160 1747)">0</text><text font-family="DengXian,DengXian_MSFontService,sans-serif" font-weight="400" font-size="50" transform="matrix(1 0 0 1 3050.25 1747)">0</text><text font-family="DengXian,DengXian_MSFontService,sans-serif" font-weight="400" font-size="50" transform="matrix(1 0 0 1 2940.49 1747)">0</text><text font-family="DengXian,DengXian_MSFontService,sans-serif" font-weight="400" font-size="50" transform="matrix(1 0 0 1 2830.74 1747)">0</text><text font-family="DengXian,DengXian_MSFontService,sans-serif" font-weight="400" font-size="50" transform="matrix(1 0 0 1 2691.67 1747)">Blk</text><g><text font-family="DengXian,DengXian_MSFontService,sans-serif" font-weight="400" font-size="50" transform="matrix(1 0 0 1 2576.67 1747)">IfF</text></g><text font-family="DengXian,DengXian_MSFontService,sans-serif" font-weight="400" font-size="50" transform="matrix(1 0 0 1 2479.52 1747)">1</text><text font-family="DengXian,DengXian_MSFontService,sans-serif" font-weight="400" font-size="50" transform="matrix(1 0 0 1 2006.16 1747)">Delay/side</text><text font-family="DengXian,DengXian_MSFontService,sans-serif" font-weight="400" font-size="50" transform="matrix(1 0 0 1 2233.04 1747)">-</text><text font-family="DengXian,DengXian_MSFontService,sans-serif" font-weight="400" font-size="50" transform="matrix(1 0 0 1 2258.25 1747)">set</text><text font-family="DengXian,DengXian_MSFontService,sans-serif" font-weight="400" font-size="50" transform="matrix(1 0 0 1 1820.99 1747)">0</text><text font-family="DengXian,DengXian_MSFontService,sans-serif" font-weight="400" font-size="50" transform="matrix(1 0 0 1 1711.23 1747)">0</text><text font-family="DengXian,DengXian_MSFontService,sans-serif" font-weight="400" font-size="50" transform="matrix(1 0 0 1 1601.48 1747)">1</text><g><text font-family="DengXian,DengXian_MSFontService,sans-serif" font-weight="400" font-size="50" transform="matrix(1 0 0 1 1386.92 1747)">PULL</text></g><text font-family="DengXian,DengXian_MSFontService,sans-serif" font-weight="400" font-size="50" transform="matrix(1 0 0 1 3099.27 1840)">Source</text><text font-family="DengXian,DengXian_MSFontService,sans-serif" font-weight="400" font-size="50" transform="matrix(1 0 0 1 2865.27 1840)">Op</text><text font-family="DengXian,DengXian_MSFontService,sans-serif" font-weight="400" font-size="50" transform="matrix(1 0 0 1 2490.82 1840)">Destination</text><text font-family="DengXian,DengXian_MSFontService,sans-serif" font-weight="400" font-size="50" transform="matrix(1 0 0 1 2006.16 1840)">Delay/side</text><text font-family="DengXian,DengXian_MSFontService,sans-serif" font-weight="400" font-size="50" transform="matrix(1 0 0 1 2233.04 1840)">-</text><text font-family="DengXian,DengXian_MSFontService,sans-serif" font-weight="400" font-size="50" transform="matrix(1 0 0 1 2258.25 1840)">set</text><text font-family="DengXian,DengXian_MSFontService,sans-serif" font-weight="400" font-size="50" transform="matrix(1 0 0 1 1820.99 1840)">1</text><text font-family="DengXian,DengXian_MSFontService,sans-serif" font-weight="400" font-size="50" transform="matrix(1 0 0 1 1711.23 1840)">0</text><text font-family="DengXian,DengXian_MSFontService,sans-serif" font-weight="400" font-size="50" transform="matrix(1 0 0 1 1601.48 1840)">1</text><g><text font-family="DengXian,DengXian_MSFontService,sans-serif" font-weight="400" font-size="50" transform="matrix(1 0 0 1 1386.92 1840)">MOV</text></g><text font-family="DengXian,DengXian_MSFontService,sans-serif" font-weight="400" font-size="50" transform="matrix(1 0 0 1 3004.7 1933)">Index</text><g><text font-family="DengXian,DengXian_MSFontService,sans-serif" font-weight="400" font-size="50" transform="matrix(1 0 0 1 2673.91 1933)">Wait</text></g><g><text font-family="DengXian,DengXian_MSFontService,sans-serif" font-weight="400" font-size="50" transform="matrix(1 0 0 1 2572.37 1933)">Clr</text></g><text font-family="DengXian,DengXian_MSFontService,sans-serif" font-weight="400" font-size="50" transform="matrix(1 0 0 1 2479.52 1933)">0</text><text font-family="DengXian,DengXian_MSFontService,sans-serif" font-weight="400" font-size="50" transform="matrix(1 0 0 1 2006.16 1933)">Delay/side</text><text font-family="DengXian,DengXian_MSFontService,sans-serif" font-weight="400" font-size="50" transform="matrix(1 0 0 1 2233.04 1933)">-</text><text font-family="DengXian,DengXian_MSFontService,sans-serif" font-weight="400" font-size="50" transform="matrix(1 0 0 1 2258.25 1933)">set</text><text font-family="DengXian,DengXian_MSFontService,sans-serif" font-weight="400" font-size="50" transform="matrix(1 0 0 1 1820.99 1933)">0</text><text font-family="DengXian,DengXian_MSFontService,sans-serif" font-weight="400" font-size="50" transform="matrix(1 0 0 1 1711.23 1933)">1</text><text font-family="DengXian,DengXian_MSFontService,sans-serif" font-weight="400" font-size="50" transform="matrix(1 0 0 1 1601.48 1933)">1</text><g><text font-family="DengXian,DengXian_MSFontService,sans-serif" font-weight="400" font-size="50" transform="matrix(1 0 0 1 1386.92 1933)">IRQ</text></g><text font-family="DengXian,DengXian_MSFontService,sans-serif" font-weight="400" font-size="50" transform="matrix(1 0 0 1 3012.72 2025)">Data</text><text font-family="DengXian,DengXian_MSFontService,sans-serif" font-weight="400" font-size="50" transform="matrix(1 0 0 1 2490.82 2025)">Destination</text><text font-family="DengXian,DengXian_MSFontService,sans-serif" font-weight="400" font-size="50" transform="matrix(1 0 0 1 2006.16 2025)">Delay/side</text><text font-family="DengXian,DengXian_MSFontService,sans-serif" font-weight="400" font-size="50" transform="matrix(1 0 0 1 2233.04 2025)">-</text><text font-family="DengXian,DengXian_MSFontService,sans-serif" font-weight="400" font-size="50" transform="matrix(1 0 0 1 2258.25 2025)">set</text><text font-family="DengXian,DengXian_MSFontService,sans-serif" font-weight="400" font-size="50" transform="matrix(1 0 0 1 1820.99 2025)">1</text><text font-family="DengXian,DengXian_MSFontService,sans-serif" font-weight="400" font-size="50" transform="matrix(1 0 0 1 1711.23 2025)">1</text><text font-family="DengXian,DengXian_MSFontService,sans-serif" font-weight="400" font-size="50" transform="matrix(1 0 0 1 1601.48 2025)">1</text><g><text font-family="DengXian,DengXian_MSFontService,sans-serif" font-weight="400" font-size="50" transform="matrix(1 0 0 1 1386.92 2025)">SET</text></g></g></svg>